<?xml version="1.0" standalone="no"?>
<!DOCTYPE svg PUBLIC "-//W3C//DTD SVG 20010904//EN"
 "http://www.w3.org/TR/2001/REC-SVG-20010904/DTD/svg10.dtd">
<svg version="1.0" xmlns="http://www.w3.org/2000/svg"
 width="450.000000pt" height="450.000000pt" viewBox="0 0 450.000000 450.000000"
 preserveAspectRatio="xMidYMid meet">
<metadata>
Created by potrace 1.14, written by Peter Selinger 2001-2017
</metadata>
<g transform="translate(0.000000,450.000000) scale(0.100000,-0.100000)"
fill="#000000" stroke="none">
<path d="M2015 4308 c-215 -24 -467 -102 -675 -209 -661 -340 -1080 -1031
-1080 -1781 0 -996 733 -1846 1709 -1982 144 -21 398 -21 542 0 707 98 1307
576 1574 1254 135 345 170 757 94 1135 -106 531 -453 1027 -914 1305 -375 226
-824 326 -1250 278z m299 -620 c54 -61 75 -116 58 -152 -10 -22 -8 -24 31 -36
184 -54 353 -220 386 -378 28 -133 7 -346 -59 -612 -23 -91 -44 -194 -47 -230
-6 -73 16 -211 48 -294 10 -28 19 -52 19 -53 0 -2 -235 -3 -521 -3 l-522 0 6
90 c8 110 32 230 59 292 27 63 73 104 256 227 176 119 258 190 283 246 18 39
25 96 13 107 -3 3 -26 -6 -52 -21 -41 -23 -58 -26 -132 -25 -47 0 -106 4 -132
8 -26 5 -58 6 -72 2 -34 -8 -82 -59 -113 -120 -14 -28 -26 -52 -28 -53 -1 -2
-26 4 -55 13 -36 11 -70 14 -101 10 -42 -6 -49 -4 -64 16 -22 32 -48 125 -41
151 3 12 49 60 103 107 54 47 141 124 194 172 l97 87 -15 52 -15 51 37 38 c49
50 142 95 228 111 l67 12 0 129 c0 149 2 150 84 56z m-894 -382 c0 -20 -9 -27
-72 -47 -86 -27 -128 -62 -157 -129 -20 -46 -21 -64 -19 -282 2 -215 0 -238
-20 -298 -27 -83 -67 -146 -124 -195 l-45 -39 51 -47 c115 -105 139 -195 134
-504 l-3 -220 28 -57 c31 -63 86 -111 149 -130 30 -9 38 -16 38 -35 0 -27 4
-26 -80 -12 -112 18 -188 73 -226 165 -10 23 -22 125 -34 273 -11 130 -25 259
-31 286 -24 104 -79 183 -156 227 -72 40 -73 68 -4 102 27 14 65 44 85 67 69
81 85 157 107 499 11 164 15 191 37 238 48 99 156 157 300 161 38 1 42 -1 42
-23z m1865 -5 c28 -12 64 -36 82 -53 60 -58 70 -101 93 -373 11 -136 25 -266
31 -288 26 -98 102 -199 170 -228 43 -17 40 -60 -5 -81 -91 -44 -155 -141
-175 -266 -6 -37 -18 -164 -26 -282 -18 -243 -26 -271 -100 -338 -50 -47 -148
-82 -226 -82 -45 0 -49 2 -49 24 0 19 8 26 45 36 77 22 130 62 159 122 l27 55
-2 229 c-2 160 2 244 11 279 23 91 61 158 123 218 33 31 55 57 49 57 -20 0
-101 89 -126 139 -49 95 -58 163 -54 406 2 194 1 225 -15 260 -38 84 -106 131
-219 150 -30 5 -38 10 -38 27 0 20 4 20 98 16 70 -3 111 -11 147 -27z m-477
-1468 c-3 -17 -38 -18 -558 -18 -520 0 -555 1 -558 18 -3 16 29 17 558 17 529
0 561 -1 558 -17z m69 -208 c18 -54 33 -105 33 -112 0 -10 -126 -13 -649 -13
-358 0 -652 4 -655 9 -3 4 11 56 30 115 l36 106 586 -2 585 -3 34 -100z m-389
-188 c2 -9 -8 -31 -23 -48 -37 -45 -65 -103 -65 -137 0 -49 83 -142 183 -207
15 -9 27 -24 27 -31 0 -12 -58 -14 -349 -14 -205 0 -352 4 -356 9 -3 5 21 30
54 55 93 72 151 142 151 182 0 45 -20 92 -59 136 -64 74 -50 79 214 76 201 -3
220 -5 223 -21z"/>
<path d="M0 120 l0 -120 2250 0 2250 0 0 120 0 120 -2250 0 -2250 0 0 -120z"/>
</g>
</svg>
